# xmcd CD database file
# Copyright (C) 1995-1998 Ti Kan
#
# Track frame offsets:
#	180
#	17624
#	40091
#	54572
#	81477
#	106039
#	127250
#	146489
#	156800
#	172533
#	210611
#	222246
#	247412
#
# Disc length: 3542 seconds
#
# Revision: 1
# Processed by: cddbd v1.4PL0 Copyright (c) Steve Scherf et al.
# Submitted via: CDex 1.30Release
#
DISCID=b30dd40d
DTITLE=Swine Cadillac - Let The People Boogie
DYEAR=1994
DGENRE=Blues
TTITLE0=Stepped Right In It
TTITLE1=Pork Chops
TTITLE2=I Won't Tell You
TTITLE3=Just Plain Mean
TTITLE4=She's 19 Years Old
TTITLE5=I Feel More Now
TTITLE6=Tractor Blues
TTITLE7=Sowabunga
TTITLE8=Can't Hoodoo the Voodoo Man
TTITLE9=A Year From Next Friday
TTITLE10=Blind Lemmon
TTITLE11=Shark Attack
TTITLE12=Let The People Boogie
EXTD=YEAR: 1994 ID3G:   0
EXTT0=
EXTT1=
EXTT2=
EXTT3=
EXTT4=
EXTT5=
EXTT6=
EXTT7=
EXTT8=
EXTT9=
EXTT10=
EXTT11=
EXTT12=
PLAYORDER=
